HIERARCHY
ROOT Hips
{
	OFFSET 0.00000 0.00000 0.00000
	CHANNELS 6 Xposition Yposition Zposition Zrotation Yrotation Xrotation 
	JOINT LHipJoint
	{
		OFFSET 0 0 0
		CHANNELS 3 Zrotation Yrotation Xrotation
		JOINT LeftHip
		{
			OFFSET 1.58161 -1.81893 0.78828
			CHANNELS 3 Zrotation Yrotation Xrotation
			JOINT LeftKnee
			{
				OFFSET 2.53374 -6.96141 0.00000
				CHANNELS 3 Zrotation Yrotation Xrotation
				JOINT LeftAnkle
				{
					OFFSET 2.63509 -7.23986 0.00000
					CHANNELS 3 Zrotation Yrotation Xrotation
					JOINT LeftToe
					{
						OFFSET 0.14115 -0.38781 2.05350
						CHANNELS 3 Zrotation Yrotation Xrotation
						End Site
						{
							OFFSET 0.00000 -0.00000 1.05543
						}
					}
				}
			}
		}
	}
	JOINT RHipJoint
	{
		OFFSET 0 0 0
		CHANNELS 3 Zrotation Yrotation Xrotation
		JOINT RightHip
		{
			OFFSET -1.11138 -1.81893 0.78828
			CHANNELS 3 Zrotation Yrotation Xrotation
			JOINT RightKnee
			{
				OFFSET -2.58392 -7.09926 0.00000
				CHANNELS 3 Zrotation Yrotation Xrotation
				JOINT RightAnkle
				{
					OFFSET -2.66423 -7.31992 0.00000
					CHANNELS 3 Zrotation Yrotation Xrotation
					JOINT RightToe
					{
						OFFSET -0.18831 -0.51739 2.12114
						CHANNELS 3 Zrotation Yrotation Xrotation
						End Site
						{
							OFFSET -0.00000 -0.00000 1.09845
						}
					}
				}
			}
		}
	}
	JOINT lowerback
	{
		OFFSET 0 0 0
		CHANNELS 3 Zrotation Yrotation Xrotation
		JOINT Chest
		{
			OFFSET -0.01511 1.97958 -0.08829
			CHANNELS 3 Zrotation Yrotation Xrotation
			JOINT Chest2
			{
				OFFSET 0.08344 1.97334 -0.04330
				CHANNELS 3 Zrotation Yrotation Xrotation
				JOINT lowerneck
				{
					OFFSET 0 0 0
					CHANNELS 3 Zrotation Yrotation Xrotation
					JOINT Neck
					{
						OFFSET 0.00559 1.76246 0.31246
						CHANNELS 3 Zrotation Yrotation Xrotation
						JOINT Head
						{
							OFFSET -0.07011 1.80354 -0.30524
							CHANNELS 3 Zrotation Yrotation Xrotation
							End Site
							{
								OFFSET -0.02385 1.83547 -0.13906
							}
						}
					}
				}
				JOINT LeftCollar
				{
					OFFSET 0 0 0
					CHANNELS 3 Zrotation Yrotation Xrotation
					JOINT LeftShoulder
					{
						OFFSET 3.20667 1.30156 -0.60240
CHANNELS 3 Zrotation Xrotation Yrotation
						JOINT LeftElbow
						{
OFFSET 0 -4.956630 0.000000
CHANNELS 3 Zrotation Xrotation Yrotation
							JOINT LeftWrist
							{
OFFSET 0 -3.381770 0.000000
CHANNELS 3 Zrotation Xrotation Yrotation
								JOINT lhand
								{
									OFFSET 0 0 0
CHANNELS 3 Zrotation Xrotation Yrotation
									JOINT LFingers
									{
OFFSET 0 -0.662910 0.000000
CHANNELS 3 Zrotation Xrotation Yrotation
										End Site
										{
OFFSET 0 -0.534450 0.000000
										}
									}
								}
								JOINT LThumb
								{
OFFSET 0 0.000000 0.000000
CHANNELS 3 Zrotation Xrotation Yrotation
									End Site
									{
OFFSET 0 -0.542610 0.542610
									}
								}
							}
						}
					}
				}
				JOINT RightCollar
				{
					OFFSET 0 0 0
					CHANNELS 3 Zrotation Yrotation Xrotation
					JOINT RightShoulder
					{
						OFFSET -3.06877 1.34672 -0.60964
CHANNELS 3 Zrotation Xrotation Yrotation
						JOINT RightElbow
						{
OFFSET 0 -5.083650 0.000000
CHANNELS 3 Zrotation Xrotation Yrotation
							JOINT RightWrist
							{
OFFSET 0 -3.359840 0.000000
CHANNELS 3 Zrotation Xrotation Yrotation
								JOINT rhand
								{
									OFFSET 0 0 0
CHANNELS 3 Zrotation Xrotation Yrotation
									JOINT RFingers
									{
OFFSET 0 -0.820760 0.000000
CHANNELS 3 Zrotation Xrotation Yrotation
										End Site
										{
OFFSET 0 -0.661720 0.000000
										}
									}
								}
								JOINT RThumb
								{
OFFSET 0 0.000000 0.000000
CHANNELS 3 Zrotation Xrotation Yrotation
									End Site
									{
OFFSET 0 -0.671820 0.671820
									}
								}
							}
						}
					}
				}
			}
		}
	}
}
MOTION
Frames: 9
Frame Time: 0.008333333333333333
0.614200 15.565509 -3.884453 5.529669 18.015820 57.056395 0.000000 0.000000 0.000000 -6.301622 -21.349223 -102.682782 8.855570 16.713819 55.589209 -1.784149 -23.342679 3.713735 0.208797 2.942376 8.118280 0.000000 0.000000 0.000000 13.130648 -2.902448 -102.554052 -13.241126 -18.867441 69.872662 -1.095693 -2.012837 -20.595055 -0.296365 3.499286 -9.672153 7.853770 6.194779 30.808468 9.501470 9.896214 16.032911 3.303713 4.791146 1.132261 -3.953158 -10.712341 -15.018529 -4.559409 -13.269984 5.905494 -1.819619 -6.943469 4.090347 0.000000 0.000000 0.000000 22.901541 -15.491239 -76.948463 86.289605 -59.947890 56.787192 60.518600 56.601053 -19.222439 0.000000 0.000000 0.000000 -7.125000 0.000000 0.000000 41.375989 60.231954 -17.074883 0.000000 0.000000 0.000000 -105.946817 -59.650732 -60.698174 -13.376252 -21.836054 -2.591567 -55.397479 -30.085586 -21.012489 0.000000 0.000000 0.000000 7.125000 0.000000 0.000000 -15.917613 -2.956942 -17.388512
0.627640 15.571536 -3.859154 5.597182 17.966275 57.179474 0.000000 0.000000 0.000000 -6.383486 -21.408210 -102.677328 8.867339 16.721565 55.630103 -1.784094 -23.371409 3.574711 0.215031 2.985260 8.237726 0.000000 0.000000 0.000000 13.035804 -2.934270 -102.504157 -13.216165 -18.858807 69.795529 -1.104677 -2.104955 -20.717143 -0.356784 3.836526 -10.617409 7.721723 6.233820 30.908227 9.509571 9.927861 15.990196 3.357839 4.794941 1.011019 -3.941095 -10.732393 -15.018623 -4.619957 -13.293506 5.926517 -1.841738 -6.958419 4.091840 0.000000 0.000000 0.000000 22.936066 -15.482920 -77.017712 86.700541 -59.958783 57.142976 60.755097 56.618665 -19.265272 0.000000 0.000000 0.000000 -7.125000 0.000000 0.000000 41.873402 60.375331 -17.468962 0.000000 0.000000 0.000000 -106.078397 -59.684227 -61.007173 -13.253529 -21.657474 -2.546044 -55.564313 -30.043475 -21.011782 0.000000 0.000000 0.000000 7.125000 0.000000 0.000000 -16.009250 -3.051988 -17.522486
0.653920 15.535210 -3.851615 5.775916 18.248559 58.004389 0.000000 0.000000 0.000000 -5.878003 -21.870304 -103.616485 8.891068 16.737167 55.712774 -1.766027 -23.235965 3.676054 0.220032 3.019495 8.333075 0.000000 0.000000 0.000000 13.132016 -3.112550 -103.444054 -13.244942 -18.868835 69.884633 -1.099933 -2.262411 -20.746632 -0.433944 4.225493 -11.712192 8.051380 6.085442 30.075395 9.485034 9.757155 15.839676 3.269374 4.743161 1.268644 -3.960389 -10.758575 -14.845238 -4.609232 -13.344577 5.777596 -1.823383 -6.980461 4.019981 0.000000 0.000000 0.000000 22.949988 -15.485960 -77.099994 87.001531 -59.965939 57.403505 60.742745 56.041165 -18.953997 0.000000 0.000000 0.000000 -7.125000 0.000000 0.000000 41.475458 59.966420 -16.856258 0.000000 0.000000 0.000000 -106.180814 -59.680923 -61.305546 -13.173382 -21.540752 -2.516609 -55.851794 -29.630547 -20.792638 0.000000 0.000000 0.000000 7.125000 0.000000 0.000000 -16.228013 -2.916069 -17.745066
0.661032 15.548145 -3.829562 5.470640 18.178664 57.993419 0.000000 0.000000 0.000000 -5.774374 -21.575614 -103.652590 8.900110 16.743057 55.744081 -1.770213 -23.291729 3.535903 0.209868 2.949237 8.137383 0.000000 0.000000 0.000000 13.249924 -2.804913 -103.282322 -13.220462 -18.860314 69.808785 -1.113343 -2.486949 -20.971382 -0.555909 4.771741 -13.259405 7.938312 6.180264 30.202799 9.468121 9.852379 15.843262 3.271777 4.777987 1.197100 -3.764929 -10.688247 -14.712494 -4.714640 -13.302019 5.530071 -1.859831 -6.958461 3.903158 0.000000 0.000000 0.000000 23.078171 -15.374144 -76.967945 87.293302 -59.972264 57.656208 60.797254 56.434858 -19.518535 0.000000 0.000000 0.000000 -7.125000 0.000000 0.000000 42.265806 60.716076 -18.018008 0.000000 0.000000 0.000000 -106.255846 -59.883361 -61.643614 -13.161730 -21.523726 -2.512331 -56.242337 -29.547619 -20.671329 0.000000 0.000000 0.000000 7.125000 0.000000 0.000000 -16.475568 -2.976919 -18.056558
0.675306 15.540082 -3.813963 5.567992 18.303916 58.373006 0.000000 0.000000 0.000000 -5.614446 -21.779724 -103.982464 8.897260 16.741112 55.733977 -1.767511 -23.287476 3.474451 0.201038 2.887231 7.965046 0.000000 0.000000 0.000000 13.257787 -2.880857 -103.594734 -13.219405 -18.859985 69.805549 -1.120742 -2.597850 -21.089425 -0.602767 4.969338 -13.821265 8.027451 6.099672 29.892030 9.430775 9.746295 15.808771 3.239861 4.738741 1.318827 -3.587720 -10.684178 -14.779974 -4.856861 -13.319124 5.507486 -1.930191 -6.972179 3.885247 0.000000 0.000000 0.000000 23.111090 -15.380805 -76.896549 87.436791 -59.975187 57.780384 60.365049 53.997343 -18.307335 0.000000 0.000000 0.000000 -7.125000 0.000000 0.000000 40.055161 58.966539 -15.199484 0.000000 0.000000 0.000000 -106.291710 -60.020562 -61.910168 -13.187394 -21.561197 -2.521783 -56.637035 -30.020632 -20.693762 0.000000 0.000000 0.000000 7.125000 0.000000 0.000000 -16.684359 -3.243760 -18.380936
0.685342 15.547815 -3.797136 5.586725 18.370462 58.524954 0.000000 0.000000 0.000000 -5.538974 -21.858828 -104.017660 8.876390 16.727513 55.661715 -1.763129 -23.254276 3.498700 0.209176 2.944690 8.124908 0.000000 0.000000 0.000000 13.253088 -2.884173 -103.611831 -13.186325 -18.848390 69.703261 -1.119645 -2.647774 -21.103906 -0.560661 4.794819 -13.324541 8.079165 6.122235 29.767802 9.480777 9.775705 15.801719 3.270945 4.754697 1.365670 -3.584175 -10.745589 -14.660721 -4.872883 -13.408966 5.493281 -1.934142 -7.015500 3.859763 0.000000 0.000000 0.000000 22.999148 -15.379176 -77.030778 87.371396 -59.973844 57.723767 60.147008 53.295298 -18.083376 0.000000 0.000000 0.000000 -7.125000 0.000000 0.000000 39.401102 58.592451 -14.515267 0.000000 0.000000 0.000000 -106.223484 -59.939257 -61.883357 -13.191164 -21.566645 -2.523141 -56.873855 -30.936240 -20.907781 0.000000 0.000000 0.000000 7.125000 0.000000 0.000000 -16.752536 -3.685817 -18.586245
0.693747 15.565145 -3.779188 5.553597 18.398723 58.518426 0.000000 0.000000 0.000000 -5.529860 -21.857498 -103.855062 8.846178 16.707680 55.556554 -1.759307 -23.228710 3.503983 0.222867 3.038688 8.386569 0.000000 0.000000 0.000000 13.241185 -2.849643 -103.421986 -13.139737 -18.832002 69.558903 -1.113162 -2.732603 -21.088227 -0.531600 4.671799 -12.974844 8.074748 6.173680 29.855206 9.551153 9.848679 15.807433 3.322218 4.783610 1.319010 -3.629372 -10.765977 -14.497113 -4.779172 -13.447857 5.420966 -1.890487 -7.027960 3.820818 0.000000 0.000000 0.000000 22.921531 -15.423276 -77.152410 87.130431 -59.968832 57.515192 60.306653 52.943769 -17.723346 0.000000 0.000000 0.000000 -7.125000 0.000000 0.000000 39.283529 58.167806 -14.048504 0.000000 0.000000 0.000000 -106.279048 -59.865416 -62.091521 -13.151214 -21.508320 -2.508460 -56.842629 -31.295492 -21.079391 0.000000 0.000000 0.000000 7.125000 0.000000 0.000000 -16.686929 -3.905409 -18.567538
0.698408 15.587986 -3.757311 5.473140 18.314222 58.384357 0.000000 0.000000 0.000000 -5.687753 -21.724020 -103.541780 8.815332 16.687357 55.449111 -1.763254 -23.266935 3.441876 0.227487 3.069973 8.473552 0.000000 0.000000 0.000000 13.183070 -2.742107 -103.054758 -13.082806 -18.811860 69.382426 -1.112025 -2.834388 -21.128059 -0.540211 4.708992 -13.080367 7.880808 6.231929 30.187495 9.546384 9.901064 15.865062 3.377758 4.793091 1.203393 -3.645268 -10.725504 -14.709755 -4.644137 -13.386715 5.479444 -1.859459 -6.994139 3.882692 0.000000 0.000000 0.000000 23.030921 -15.551208 -77.021947 87.155890 -59.969429 57.537211 60.437525 52.263964 -17.318781 0.000000 0.000000 0.000000 -7.125000 0.000000 0.000000 39.067506 57.668237 -13.467982 0.000000 0.000000 0.000000 -106.626967 -60.028347 -62.845932 -13.076997 -21.399850 -2.481294 -56.715573 -30.991163 -21.085355 0.000000 0.000000 0.000000 7.125000 0.000000 0.000000 -16.616243 -3.836258 -18.462928
0.702082 15.612508 -3.733161 5.339933 18.188834 58.202345 0.000000 0.000000 0.000000 -5.891597 -21.504685 -103.196170 8.790230 16.670801 55.361612 -1.773079 -23.330509 3.436208 0.225218 3.054679 8.431027 0.000000 0.000000 0.000000 13.123232 -2.572434 -102.636589 -13.034267 -18.794520 69.231868 -1.116771 -2.948739 -21.226299 -0.547701 4.741085 -13.171512 7.643769 6.312135 30.575793 9.528546 9.969750 15.944902 3.434206 4.807756 1.083957 -3.655710 -10.701177 -15.054988 -4.560849 -13.335401 5.584840 -1.854801 -6.969789 3.975580 0.000000 0.000000 0.000000 23.179615 -15.638145 -76.814802 87.302094 -59.972470 57.663806 59.933240 51.391905 -17.050772 0.000000 0.000000 0.000000 -7.125000 0.000000 0.000000 37.950669 57.111297 -12.478057 0.000000 0.000000 0.000000 -107.010049 -60.206669 -63.547170 -13.001776 -21.289772 -2.453923 -56.620456 -30.611301 -20.987011 0.000000 0.000000 0.000000 7.125000 0.000000 0.000000 -16.592422 -3.641874 -18.380653
